<svg height="512pt" viewBox="0 0 512 512" width="512pt" xmlns="http://www.w3.org/2000/svg"><path d="m256 512c-141.167969 0-256-114.839844-256-256s114.832031-256 256-256 256 114.839844 256 256-114.832031 256-256 256zm0-477.867188c-122.332031 0-221.867188 99.523438-221.867188 221.867188s99.535157 221.867188 221.867188 221.867188 221.867188-99.523438 221.867188-221.867188-99.535157-221.867188-221.867188-221.867188zm0 0"/><path d="m375.464844 187.734375h-238.929688c-9.433594 0-17.070312-7.644531-17.070312-17.066406 0-9.425781 7.636718-17.066407 17.070312-17.066407h238.929688c9.433594 0 17.070312 7.640626 17.070312 17.066407 0 9.421875-7.636718 17.066406-17.070312 17.066406zm0 0"/><path d="m375.464844 273.066406h-238.929688c-9.433594 0-17.070312-7.640625-17.070312-17.066406s7.636718-17.066406 17.070312-17.066406h238.929688c9.433594 0 17.070312 7.640625 17.070312 17.066406s-7.636718 17.066406-17.070312 17.066406zm0 0"/><path d="m375.464844 358.398438h-238.929688c-9.433594 0-17.070312-7.640626-17.070312-17.066407 0-9.421875 7.636718-17.066406 17.070312-17.066406h238.929688c9.433594 0 17.070312 7.644531 17.070312 17.066406 0 9.425781-7.636718 17.066407-17.070312 17.066407zm0 0"/></svg>